# xmcd CD database file
#
# Track frame offsets:
#	150
#	19847
#	42399
#	67043
#	90353
#	112527
#	137559
#	154784
#	174428
#	200458
#	219362
#	238189
#	256276
#
# Disc length: 3769 seconds
#
# Revision: 13
# Processed by: cddbd v1.5.2PL0 Copyright (c) Steve Scherf et al.
# Submitted via: CDex 1.70beta1
#
DISCID=a70eb70d
DTITLE=L'Arc-en-Ciel - Clicked Singles Best 13
DYEAR=2001
DGENRE=Rock
TTITLE0=Blurry Eyes
TTITLE1=flower
TTITLE2=Lies and Truth
TTITLE3=?
TTITLE4=winter fall
TTITLE5=DIVE TO BLUE
TTITLE6=HONEY
TTITLE7=HEAVEN'S DRIVE
TTITLE8=Pieces
TTITLE9=Driver's High
TTITLE10=NEO UNIVERSE
TTITLE11=STAY AWAY
TTITLE12=Anemone
EXTD=YEAR: 2001
EXTT0=
EXTT1=
EXTT2=
EXTT3=
EXTT4=
EXTT5=
EXTT6=
EXTT7=
EXTT8=
EXTT9=
EXTT10=
EXTT11=
EXTT12=
PLAYORDER=
